<?xml version="1.0" encoding="UTF-8" standalone="no"?>
<!-- Created with Inkscape (http://www.inkscape.org/) -->

<svg
   width="178"
   height="178"
   viewBox="0 0 47.095834 47.095831"
   version="1.1"
   id="svg5"
   sodipodi:docname="LogoITP178x178.svg"
   inkscape:version="1.1.2 (0a00cf5339, 2022-02-04)"
   inkscape:export-filename="/home/ariel/Descargas/LogoITP.png"
   inkscape:export-xdpi="96.045799"
   inkscape:export-ydpi="96.045799"
   xmlns:inkscape="http://www.inkscape.org/namespaces/inkscape"
   xmlns:sodipodi="http://sodipodi.sourceforge.net/DTD/sodipodi-0.dtd"
   xmlns="http://www.w3.org/2000/svg"
   xmlns:svg="http://www.w3.org/2000/svg">
  <sodipodi:namedview
     id="namedview7"
     pagecolor="#ffffff"
     bordercolor="#666666"
     borderopacity="1.0"
     inkscape:pageshadow="2"
     inkscape:pageopacity="0.0"
     inkscape:pagecheckerboard="0"
     inkscape:document-units="mm"
     showgrid="false"
     fit-margin-top="0"
     fit-margin-left="0"
     fit-margin-right="0"
     fit-margin-bottom="0"
     inkscape:zoom="4"
     inkscape:cx="97.5"
     inkscape:cy="79.5"
     inkscape:window-width="1920"
     inkscape:window-height="1048"
     inkscape:window-x="0"
     inkscape:window-y="1080"
     inkscape:window-maximized="1"
     inkscape:current-layer="layer1"
     units="px"
     width="80px" />
  <defs
     id="defs2">
    <rect
       x="240.96762"
       y="424.11148"
       width="78.228767"
       height="56.061958"
       id="rect62990" />
    <rect
       x="247.52425"
       y="435.24237"
       width="59.222046"
       height="34.801361"
       id="rect52154" />
  </defs>
  <g
     inkscape:label="Capa 1"
     inkscape:groupmode="layer"
     id="layer1"
     transform="translate(-54.231808,-110.68271)">
    <text
       xml:space="preserve"
       transform="scale(0.26458333)"
       id="text52152"
       style="font-size:33.3333px;line-height:1.25;font-family:sans-serif;white-space:pre;shape-inside:url(#rect52154)" />
    <text
       xml:space="preserve"
       transform="scale(0.26458333)"
       id="text62988"
       style="font-style:normal;font-variant:normal;font-weight:bold;font-stretch:normal;font-size:33.3333px;line-height:1.25;font-family:sans-serif;-inkscape-font-specification:'sans-serif Bold';white-space:pre;shape-inside:url(#rect62990)" />
    <ellipse
       style="fill:#000000;fill-opacity:1;fill-rule:evenodd;stroke-width:0.264582"
       id="path83930-5"
       cx="77.140663"
       cy="135.28302"
       rx="21.850521"
       ry="12.809835" />
    <path
       id="path83930"
       style="fill:#00ff0a;fill-opacity:1;fill-rule:evenodd;stroke-width:0.264582"
       d="m 79.142559,120.73694 a 20.562136,12.042374 0 0 0 -20.56263,12.04203 20.562136,12.042374 0 0 0 20.56263,12.0427 20.562136,12.042374 0 0 0 20.561724,-12.0427 20.562136,12.042374 0 0 0 -20.561724,-12.04203 z m 12.396009,6.42819 c 0.891984,0 1.670454,0.0928 2.335389,0.27856 0.681152,0.17336 1.216234,0.47067 1.605465,0.89165 0.389228,0.421 0.583393,1.00935 0.583393,1.76465 0,0.81725 -0.235181,1.53541 -0.7055,2.15452 -0.470318,0.60672 -1.14305,1.08341 -2.018816,1.43011 -0.85955,0.33432 -1.873199,0.5018 -3.040889,0.5018 h -0.535458 l -0.534551,-0.0373 -0.340993,2.0612 c -0.01637,0.12374 -0.008,0.24176 0.02442,0.3532 0.03244,0.099 0.19469,0.16117 0.486614,0.18593 l 1.75109,0.1666 -0.145629,0.96629 h -7.322735 l 0.146532,-0.96629 1.143273,-0.1666 c 0.178399,-0.0247 0.316042,-0.068 0.413352,-0.12992 0.0973,-0.0619 0.153837,-0.1673 0.170044,-0.31588 l 1.216536,-7.48511 c 0.03244,-0.16097 5.27e-4,-0.26635 -0.09678,-0.31589 -0.0811,-0.0619 -0.21964,-0.10518 -0.414254,-0.12993 l -1.070009,-0.16728 0.145629,-0.96562 h 3.162994 c 0.421665,0 0.923937,-0.0124 1.507782,-0.0373 0.583845,-0.0247 1.095224,-0.0373 1.533106,-0.0373 z m -28.049077,0.0747 h 6.617235 l -0.146532,0.96563 -1.143273,0.16728 c -0.162193,0.0247 -0.291623,0.068 -0.38893,0.12992 -0.0973,0.0619 -0.162025,0.1673 -0.194459,0.31588 l -1.216537,7.48511 c -0.01638,0.16099 0.01574,0.27196 0.09678,0.33388 0.0811,0.0495 0.21964,0.0872 0.414257,0.11198 l 1.070009,0.1666 -0.145629,0.96629 h -6.617235 l 0.145629,-0.96629 1.144176,-0.1666 c 0.178399,-0.0247 0.316044,-0.068 0.413352,-0.12992 0.09732,-0.0619 0.153837,-0.1673 0.170044,-0.31589 l 1.216536,-7.4851 c 0.03243,-0.16097 -3.78e-4,-0.26636 -0.09768,-0.31589 -0.0811,-0.0619 -0.218735,-0.10518 -0.413351,-0.12993 l -1.070009,-0.16726 z m 8.149436,0 h 12.284757 c -0.03244,0.68103 -0.12176,1.32453 -0.267729,1.93127 -0.145965,0.59435 -0.331922,1.23223 -0.558973,1.91328 h -1.605467 l -0.243308,-2.15452 c -0.01637,-0.16097 -0.04902,-0.27823 -0.09768,-0.35254 -0.04866,-0.0866 -0.161688,-0.15506 -0.340085,-0.20458 -0.113531,-0.0371 -0.26758,-0.0616 -0.462195,-0.0741 -0.194606,-0.0124 -0.40609,-0.0187 -0.633141,-0.0187 h -0.437773 l -1.313317,8.02358 c -0.01637,0.13627 0.0084,0.24159 0.07327,0.31589 0.06487,0.0619 0.226224,0.10518 0.485711,0.12993 l 1.678729,0.16661 -0.170044,0.96629 h -7.906128 l 0.145629,-0.96629 1.678729,-0.18527 c 0.178399,-0.0247 0.33245,-0.0561 0.462194,-0.0934 0.145965,-0.0495 0.227091,-0.1668 0.243306,-0.35255 l 1.313316,-8.00491 H 75.48302 c -0.210834,0 -0.414108,0.006 -0.60872,0.0187 -0.194627,0 -0.380577,0.0244 -0.558974,0.0741 -0.162193,0.0495 -0.284324,0.11786 -0.365414,0.20458 -0.06487,0.0743 -0.129591,0.17901 -0.194459,0.31521 l -0.973231,2.19183 h -1.605465 c 0.01637,-0.50767 0.04083,-0.95925 0.07327,-1.35548 0.03243,-0.40861 0.08076,-0.80503 0.145629,-1.18888 0.06487,-0.39622 0.146006,-0.82963 0.243307,-1.30017 z m 19.339762,0.92832 c -0.113531,0 -0.242968,0.006 -0.388928,0.0187 -0.129738,0 -0.260092,0.006 -0.389836,0.0187 l -0.80228,4.92211 0.340088,0.0373 h 0.340993 c 0.648716,0 1.15919,-0.16121 1.532201,-0.48314 0.373012,-0.33432 0.641007,-0.74261 0.803185,-1.22553 0.178399,-0.48291 0.267729,-0.96026 0.267729,-1.43078 0,-1.23822 -0.567898,-1.8573 -1.703152,-1.8573 z" />
  </g>
</svg>
